<?xml version="1.0" encoding="utf-8"?>
<!-- Generator: Adobe Illustrator 23.0.5, SVG Export Plug-In . SVG Version: 6.00 Build 0)  -->
<svg version="1.1" id="Layer_1" xmlns="http://www.w3.org/2000/svg" xmlns:xlink="http://www.w3.org/1999/xlink" x="0px" y="0px"
	 viewBox="0 0 20 20" style="enable-background:new 0 0 20 20;" xml:space="preserve">
<style type="text/css">
	.st0{fill:#222222;}
</style>
<g id="layer1">
	<path class="st0" d="M9.8,0L9.1,0L8.4,0.1L7.7,0.3L7,0.5L6.3,0.7L5.6,1L5,1.3L4.4,1.7L3.8,2.1L3.2,2.6L2.7,3.1L2.3,3.7L1.8,4.2
		L1.4,4.8L1.1,5.5L0.8,6.1L0.5,6.8L0.3,7.5L0.2,8.2L0.1,8.9L0,9.6v0.7l0.1,0.7l0.1,0.7l0.2,0.7l0.2,0.7l0.3,0.7l0.3,0.7l0.4,0.6
		l0.4,0.6l0.4,0.6l0.5,0.5l0.5,0.5l0.6,0.5l0.6,0.4L5,18.7L5.6,19l0.7,0.3L7,19.5l0.7,0.2l0.7,0.1L9.1,20l0.7,0l0.7,0l0.7-0.1
		l0.7-0.1l0.7-0.2l0.7-0.2l0.7-0.3l0.7-0.3l0.6-0.4l0.6-0.4l0.6-0.4l0.5-0.5l0.5-0.5l0.5-0.6l0.4-0.6l0.4-0.6l0.3-0.6l0.3-0.7
		l0.2-0.7l0.2-0.7l0.1-0.7l0.1-0.7l0-0.7l0-0.7l-0.1-0.7l-0.1-0.7l-0.2-0.7l-0.2-0.7l-0.3-0.7l-0.3-0.6l-0.4-0.6L18,3.9l-0.5-0.6
		L17,2.9l-0.5-0.5l-0.6-0.4l-0.6-0.4l-0.6-0.4L14,0.8l-0.7-0.3l-0.7-0.2L12,0.2l-0.7-0.1L10.5,0L9.8,0z M10.2,1.2l0.7,0l0.7,0.1
		l0.7,0.1l0.7,0.2l0.6,0.2l0.6,0.3l0.6,0.3l0.6,0.4l0.5,0.4l0.5,0.5l0.5,0.5l0.4,0.5l0.4,0.6L17.9,6l0.3,0.6l0.2,0.6L18.6,8l0.1,0.7
		l0.1,0.7l0,0.7l0,0.7l-0.1,0.7L18.6,12l-0.2,0.7l-0.2,0.6L17.9,14l-0.3,0.6l-0.4,0.6l-0.4,0.5l-0.5,0.5l-0.5,0.5l-0.5,0.4l-0.6,0.4
		l-0.6,0.3l-0.6,0.3l-0.6,0.2l-0.7,0.2l-0.7,0.1l-0.7,0.1l-0.7,0l-0.7,0l-0.7-0.1l-0.7-0.1l-0.7-0.2l-0.6-0.2L6.2,18l-0.6-0.3
		L5,17.3l-0.5-0.4l-0.5-0.5l-0.5-0.5L3,15.4l-0.4-0.6l-0.4-0.6L2,13.7L1.7,13l-0.2-0.7l-0.2-0.7L1.2,11l-0.1-0.7V9.7L1.2,9l0.1-0.7
		l0.2-0.7L1.7,7L2,6.3l0.3-0.6l0.4-0.6L3,4.6l0.4-0.5l0.5-0.5l0.5-0.5L5,2.7l0.6-0.4L6.2,2l0.6-0.3l0.6-0.2l0.7-0.2l0.7-0.1l0.7-0.1
		L10.2,1.2z M10,4.7c-2.9,0-5.3,2.4-5.3,5.3s2.4,5.3,5.3,5.3c1.2,0,2.3-0.4,3.3-1.1l-0.7-0.9c-0.7,0.6-1.6,0.9-2.6,0.9
		c-2.3,0-4.1-1.8-4.1-4.1S7.7,5.9,10,5.9c0.9,0,1.8,0.3,2.5,0.9l0.7-0.9C12.3,5.1,11.2,4.7,10,4.7z"/>
</g>
</svg>
