<?xml version="1.0" encoding="utf-8"?>
<!-- Generator: Adobe Illustrator 23.0.5, SVG Export Plug-In . SVG Version: 6.00 Build 0)  -->
<svg version="1.1" id="Layer_1" xmlns="http://www.w3.org/2000/svg" xmlns:xlink="http://www.w3.org/1999/xlink" x="0px" y="0px"
	 viewBox="0 0 20 20" style="enable-background:new 0 0 20 20;" xml:space="preserve">
<title>Dashboard</title>
<g>
	<path d="M9.5,3v3.6c0,1.6-1.3,3-3,3H3c-1.6,0-3-1.3-3-3V3c0-1.6,1.3-3,3-3h3.6C8.2,0,9.5,1.3,9.5,3z M17,0h-3.6c-1.6,0-3,1.3-3,3
		v3.6c0,1.6,1.3,3,3,3H17c1.6,0,3-1.3,3-3V3C20,1.3,18.7,0,17,0z M6.5,10.5H3c-1.6,0-3,1.3-3,3V17c0,1.6,1.3,3,3,3h3.6
		c1.6,0,3-1.3,3-3v-3.6C9.5,11.8,8.2,10.5,6.5,10.5z M17,10.5h-3.6c-1.6,0-3,1.3-3,3V17c0,1.6,1.3,3,3,3H17c1.6,0,3-1.3,3-3v-3.6
		C20,11.8,18.7,10.5,17,10.5z"/>
</g>
</svg>
