<?xml version="1.0" encoding="utf-8"?>
<!-- Generator: Adobe Illustrator 23.0.5, SVG Export Plug-In . SVG Version: 6.00 Build 0)  -->
<svg version="1.1" xmlns="http://www.w3.org/2000/svg" xmlns:xlink="http://www.w3.org/1999/xlink" x="0px" y="0px"
	 viewBox="0 0 20 19.4" style="enable-background:new 0 0 20 19.4;" xml:space="preserve">
<g id="Layer_2">
</g>
<g id="Layer_1">
	<g>
		<path d="M18.3,2h-1.6v0.8c0,1.3-1.1,2.4-2.4,2.4s-2.4-1.1-2.4-2.4V2H8.3v0.8c0,1.3-1.1,2.4-2.4,2.4c-1.3,0-2.4-1.1-2.4-2.4V2H1.8
			C0.8,2,0,2.7,0,3.7V7h20V3.7C20,2.8,19.2,2,18.3,2z"/>
		<path d="M5.8,3.9C6.5,3.9,7,3.4,7,2.7V1.2C7,0.5,6.5,0,5.8,0C5.2,0,4.6,0.5,4.6,1.2v1.5C4.6,3.4,5.2,3.9,5.8,3.9z"/>
		<path d="M14.2,3.9c0.7,0,1.2-0.5,1.2-1.2V1.2c0-0.7-0.5-1.2-1.2-1.2C13.5,0,13,0.5,13,1.2v1.5C13,3.4,13.5,3.9,14.2,3.9z"/>
		<path d="M0,17.7c0,1,0.8,1.7,1.7,1.7h16.5c1,0,1.7-0.8,1.7-1.7V8.2H0L0,17.7L0,17.7z M7.6,12.9l1.3-0.2c0.1,0,0.2-0.1,0.2-0.2
			l0.6-1.2c0.1-0.3,0.5-0.3,0.7,0l0.6,1.2c0,0.1,0.1,0.1,0.2,0.2l1.3,0.2c0.3,0,0.4,0.4,0.2,0.7l-0.9,0.9c-0.1,0.1-0.1,0.2-0.1,0.3
			l0.2,1.3c0.1,0.3-0.3,0.5-0.5,0.4l-1.2-0.6c-0.1,0-0.2,0-0.3,0l-1.1,0.6c-0.3,0.1-0.6-0.1-0.5-0.4l0.2-1.3c0-0.1,0-0.2-0.1-0.3
			l-0.9-0.9C7.1,13.3,7.3,12.9,7.6,12.9z"/>
	</g>
</g>
</svg>
