<?xml version="1.0" encoding="utf-8"?>
<!-- Generator: Adobe Illustrator 23.0.5, SVG Export Plug-In . SVG Version: 6.00 Build 0)  -->
<svg version="1.1" id="Layer_1" xmlns:sketch="http://www.bohemiancoding.com/sketch/ns"
	 xmlns="http://www.w3.org/2000/svg" xmlns:xlink="http://www.w3.org/1999/xlink" x="0px" y="0px" viewBox="0 0 20 26.2"
	 style="enable-background:new 0 0 20 26.2;" xml:space="preserve">
<style type="text/css">
	.st0{fill-rule:evenodd;clip-rule:evenodd;}
</style>
<title></title>
<desc></desc>
<g id="Page-1">
	<g id="Core" transform="translate(-550.000000, -253.000000)">
		<g id="https" transform="translate(550.000000, 253.500000)">
			<path id="Shape" class="st0" d="M17.5,8.2h-1.2V5.7c0-3.5-2.7-6.2-6.2-6.2S3.7,2.2,3.7,5.7v2.5H2.5C1.1,8.2,0,9.4,0,10.7v12.5
				c0,1.4,1.1,2.5,2.5,2.5h15c1.4,0,2.5-1.1,2.5-2.5V10.7C20,9.4,18.8,8.2,17.5,8.2L17.5,8.2z M10,19.5c-1.4,0-2.5-1.1-2.5-2.5
				c0-1.4,1.1-2.5,2.5-2.5s2.5,1.1,2.5,2.5C12.5,18.3,11.4,19.5,10,19.5L10,19.5z M13.8,8.2H6.1V5.7c0-2.1,1.7-3.9,3.9-3.9
				s3.9,1.7,3.9,3.9V8.2L13.8,8.2z"/>
		</g>
	</g>
</g>
</svg>
