<?xml version="1.0" encoding="utf-8"?>
<!-- Generator: Adobe Illustrator 23.0.5, SVG Export Plug-In . SVG Version: 6.00 Build 0)  -->
<svg version="1.1" id="Layer_1" xmlns="http://www.w3.org/2000/svg" xmlns:xlink="http://www.w3.org/1999/xlink" x="0px" y="0px"
	 viewBox="0 0 20 21.8" style="enable-background:new 0 0 20 21.8;" xml:space="preserve">
<path d="M19.9,17.7c-0.1-0.1-0.2-0.3-0.3-0.3l-1-0.6c-0.4-0.2-0.7-0.6-0.9-1c-0.2-0.4-0.3-0.8-0.3-1.3V9.1c0-1.6-0.5-3.1-1.5-4.4
	c-0.9-1.3-2.3-2.2-3.8-2.6c-0.1,0-0.1-0.1-0.2-0.1c0-0.1-0.1-0.1-0.1-0.2c0-0.5-0.2-0.9-0.5-1.3C10.9,0.2,10.5,0,10,0
	C9.5,0,9.1,0.2,8.7,0.5S8.2,1.3,8.2,1.8c0,0.1,0,0.1-0.1,0.2C8.1,2.1,8,2.1,8,2.1C6.4,2.6,5.1,3.5,4.2,4.7C3.2,6,2.7,7.5,2.7,9.1
	v5.4c0,0.5-0.1,0.9-0.3,1.3c-0.2,0.4-0.5,0.7-0.9,1l-1,0.6c-0.2,0.1-0.3,0.3-0.4,0.4C0,18,0,18.2,0,18.4c0.1,0.2,0.2,0.4,0.3,0.5
	c0.2,0.1,0.4,0.2,0.6,0.2h18.2c0.2,0,0.3,0,0.5-0.1c0.1-0.1,0.3-0.2,0.3-0.3c0.1-0.1,0.1-0.3,0.1-0.5C20,18,20,17.9,19.9,17.7
	L19.9,17.7z"/>
<path d="M8.4,21.3c0.3,0.2,0.7,0.4,1.2,0.5c0.4,0.1,0.8,0,1.2-0.1c0.4-0.1,0.8-0.3,1.1-0.6c0.3-0.3,0.5-0.7,0.7-1H7.4
	C7.6,20.5,8,21,8.4,21.3z"/>
</svg>
