<?xml version="1.0" encoding="utf-8"?>
<!-- Generator: Adobe Illustrator 23.0.5, SVG Export Plug-In . SVG Version: 6.00 Build 0)  -->
<svg version="1.1" id="Layer_1" xmlns="http://www.w3.org/2000/svg" xmlns:xlink="http://www.w3.org/1999/xlink" x="0px" y="0px"
	 viewBox="0 0 20 20.5" style="enable-background:new 0 0 20 20.5;" xml:space="preserve">
<g>
	<g>
		<path d="M15.5,5.5C15.5,2.5,13,0,10,0S4.5,2.5,4.5,5.5S7,11,10,11S15.5,8.5,15.5,5.5z"/>
		<path d="M12.2,12.1c-0.7,0.2-1.4,0.3-2.2,0.3c-0.7,0-1.5-0.1-2.2-0.3c-2.2-0.7-4.6-0.1-6.1,1.6c-1.1,1.3-1.7,3-1.7,4.8
			c0,1,0.8,1.8,1.8,1.8h16.3c1,0,1.8-0.8,1.8-1.8c0-1.8-0.6-3.5-1.7-4.8C16.8,12,14.4,11.4,12.2,12.1z"/>
	</g>
</g>
</svg>
