<?xml version="1.0" encoding="utf-8"?>
<!-- Generator: Adobe Illustrator 23.0.5, SVG Export Plug-In . SVG Version: 6.00 Build 0)  -->
<svg version="1.1" id="Layer_1" xmlns="http://www.w3.org/2000/svg" xmlns:xlink="http://www.w3.org/1999/xlink" x="0px" y="0px"
	 viewBox="0 0 20 20" style="enable-background:new 0 0 20 20;" xml:space="preserve">
<path d="M10,0C4.5,0,0,4.5,0,10s4.5,10,10,10s10-4.5,10-10C20,4.5,15.5,0,10,0z M9.3,4.7C9.3,4.3,9.6,4,10,4s0.7,0.3,0.7,0.7v4.7
	c0,0.4-0.3,0.7-0.7,0.7S9.3,9.7,9.3,9.3V4.7z M10,16c-3.3,0-6-2.7-6-6c0-1.8,0.8-3.5,2.3-4.7c0.3-0.3,0.7-0.2,0.9,0
	c0.3,0.3,0.2,0.7,0,0.9c0,0-0.1,0-0.1,0.1c-2,1.6-2.3,4.5-0.7,6.6s4.5,2.3,6.6,0.7s2.3-4.5,0.7-6.6c-0.2-0.3-0.5-0.5-0.7-0.7
	c-0.3-0.3-0.3-0.7,0-0.9c0.2-0.2,0.6-0.3,0.9-0.1C15.2,6.5,16,8.2,16,10C16,13.3,13.3,16,10,16z"/>
</svg>
