<?xml version="1.0" encoding="utf-8"?>
<!-- Generator: Adobe Illustrator 23.0.5, SVG Export Plug-In . SVG Version: 6.00 Build 0)  -->
<svg version="1.1" xmlns="http://www.w3.org/2000/svg" xmlns:xlink="http://www.w3.org/1999/xlink" x="0px" y="0px"
	 viewBox="0 0 20 24.4" style="enable-background:new 0 0 20 24.4;" xml:space="preserve">
<g id="Layer_2">
</g>
<g id="Layer_1">
	<g>
		<path d="M18.3,21.2H9.4c0.1-0.3,0.1-0.6,0.1-0.9c0-3-2.4-5.4-5.4-5.4c-0.2,0-0.4,0-0.5,0l0.1-0.5c0.5-2.2,2.2-3.7,4.4-3.7
			c0.2,0,0.4,0.1,0.5,0.3l1.6,4.9l0.6-2.9h-0.1c-0.2,0-0.4-0.2-0.4-0.4v-1c0-0.2,0.2-0.4,0.4-0.4h1.3c0.2,0,0.4,0.2,0.4,0.4v1
			c0,0.2-0.2,0.4-0.4,0.4h-0.1l0.6,2.9l1.6-4.9c0.1-0.2,0.3-0.3,0.5-0.3c2.2-0.1,3.9,1.5,4.4,3.7l1.1,4.7
			C20.2,20.2,19.4,21.2,18.3,21.2z"/>
		<circle cx="11.2" cy="5.2" r="5.2"/>
		<path d="M4,16.3c-2.2,0-4,1.8-4,4s1.8,4,4,4c2.2,0,4-1.8,4-4S6.3,16.3,4,16.3z M5.7,20.9H4.5V22c0,0.3-0.2,0.5-0.5,0.5
			S3.5,22.3,3.5,22v-1.1H2.4c-0.3,0-0.5-0.2-0.5-0.5s0.2-0.5,0.5-0.5h1.1v-1.1c0-0.3,0.2-0.5,0.5-0.5s0.5,0.2,0.5,0.5v1.1h1.1
			c0.3,0,0.5,0.2,0.5,0.5S6,20.9,5.7,20.9z"/>
	</g>
</g>
</svg>
